<?xml version="1.0" encoding="UTF-8" standalone="no"?>
<!DOCTYPE svg PUBLIC "-//W3C//DTD SVG 1.1//EN"
 "http://www.w3.org/Graphics/SVG/1.1/DTD/svg11.dtd">
<!-- Generated by graphviz version 2.43.0 (0)
 -->
<!-- Title: SuburbDesk Pages: 1 -->
<svg width="2251pt" height="629pt"
 viewBox="0.00 0.00 2251.00 629.01" xmlns="http://www.w3.org/2000/svg" xmlns:xlink="http://www.w3.org/1999/xlink">
<g id="graph0" class="graph" transform="scale(1 1) rotate(0) translate(4 625.01)">
<title>SuburbDesk</title>
<polygon fill="white" stroke="transparent" points="-4,4 -4,-625.01 2247,-625.01 2247,4 -4,4"/>
<text text-anchor="middle" x="1121.5" y="-601.01" font-family="Helvetica,sans-Serif" font-size="20.00">SuburbDesk — Architecture (généré le 2026&#45;06&#45;25)</text>
<g id="clust1" class="cluster">
<title>cluster_fe</title>
<polygon fill="#f3f6fb" stroke="black" points="8,-334.75 8,-518.75 290,-518.75 290,-334.75 8,-334.75"/>
<text text-anchor="middle" x="149" y="-504.35" font-family="Helvetica,sans-Serif" font-size="13.00">Frontend — React + Vite (Vercel)</text>
</g>
<g id="clust2" class="cluster">
<title>cluster_be</title>
<polygon fill="#eef7f0" stroke="black" points="298,-20.25 298,-408.75 1388,-408.75 1388,-20.25 298,-20.25"/>
<text text-anchor="middle" x="843" y="-394.35" font-family="Helvetica,sans-Serif" font-size="13.00">Backend — Flask (Render) &#160;· &#160;app.py</text>
</g>
<g id="clust3" class="cluster">
<title>cluster_signals</title>
<polygon fill="#dcedc1" stroke="black" points="318,-134.5 318,-216.75 1380,-216.75 1380,-134.5 318,-134.5"/>
<text text-anchor="middle" x="849" y="-203.15" font-family="Helvetica,sans-Serif" font-size="12.00">signals/ &#160;— signal loops</text>
</g>
<g id="clust4" class="cluster">
<title>cluster_db</title>
<polygon fill="#fdeff2" stroke="black" points="1396,-8 1396,-106.5 2047,-106.5 2047,-8 1396,-8"/>
<text text-anchor="middle" x="1721.5" y="-92.1" font-family="Helvetica,sans-Serif" font-size="13.00">Base — Postgres (Neon) / SQLite (local)</text>
</g>
<g id="clust5" class="cluster">
<title>cluster_cron</title>
<polygon fill="#fff3e0" stroke="black" points="1396,-334.75 1396,-514.75 1767,-514.75 1767,-334.75 1396,-334.75"/>
<text text-anchor="middle" x="1581.5" y="-500.35" font-family="Helvetica,sans-Serif" font-size="13.00">Scraping &amp; Cron (GitHub Actions)</text>
</g>
<!-- agent -->
<g id="node1" class="node">
<title>agent</title>
<ellipse fill="#e8eaf6" stroke="#cccccc" cx="183" cy="-568.38" rx="85.62" ry="22.76"/>
<text text-anchor="middle" x="183" y="-571.58" font-family="Helvetica,sans-Serif" font-size="11.00">Agent (navigateur)</text>
<text text-anchor="middle" x="183" y="-559.58" font-family="Helvetica,sans-Serif" font-size="11.00">suburbdesk.com</text>
</g>
<!-- feshell -->
<g id="node2" class="node">
<title>feshell</title>
<polygon fill="#ffffff" stroke="#cccccc" points="269.5,-488.75 96.5,-488.75 96.5,-444.75 269.5,-444.75 269.5,-488.75"/>
<text text-anchor="middle" x="183" y="-475.95" font-family="Helvetica,sans-Serif" font-size="11.00">App.jsx / Header</text>
<text text-anchor="middle" x="183" y="-463.95" font-family="Helvetica,sans-Serif" font-size="11.00">lib/api.js (BACKEND_DIRECT)</text>
<text text-anchor="middle" x="183" y="-451.95" font-family="Helvetica,sans-Serif" font-size="11.00">main.jsx keep&#45;alive ping</text>
</g>
<!-- agent&#45;&gt;feshell -->
<g id="edge1" class="edge">
<title>agent&#45;&gt;feshell</title>
<path fill="none" stroke="#555555" d="M183,-545.27C183,-531.71 183,-514.13 183,-499.14"/>
<polygon fill="#555555" stroke="#555555" points="186.5,-498.78 183,-488.78 179.5,-498.78 186.5,-498.78"/>
</g>
<!-- fepages -->
<g id="node3" class="node">
<title>fepages</title>
<polygon fill="#ffffff" stroke="#cccccc" points="282,-378.75 16,-378.75 16,-342.75 282,-342.75 282,-378.75"/>
<text text-anchor="middle" x="149" y="-363.95" font-family="Helvetica,sans-Serif" font-size="11.00">Pages: Listings · Pipeline · Appraisals*</text>
<text text-anchor="middle" x="149" y="-351.95" font-family="Helvetica,sans-Serif" font-size="11.00">Market Report · Hot Vendors · Rental · Admin</text>
</g>
<!-- feshell&#45;&gt;fepages -->
<g id="edge2" class="edge">
<title>feshell&#45;&gt;fepages</title>
<path fill="none" stroke="#555555" d="M176.12,-444.71C170.83,-428.53 163.49,-406.08 157.78,-388.61"/>
<polygon fill="#555555" stroke="#555555" points="161.07,-387.4 154.63,-378.98 154.41,-389.58 161.07,-387.4"/>
</g>
<!-- gate -->
<g id="node4" class="node">
<title>gate</title>
<polygon fill="#fff8e1" stroke="#cccccc" points="1158,-378.75 904,-378.75 904,-342.75 1158,-342.75 1158,-378.75"/>
<text text-anchor="middle" x="1031" y="-363.95" font-family="Helvetica,sans-Serif" font-size="11.00">before_request gate</text>
<text text-anchor="middle" x="1031" y="-351.95" font-family="Helvetica,sans-Serif" font-size="11.00">resolve_request_scope() / _require_admin()</text>
</g>
<!-- feshell&#45;&gt;gate -->
<g id="edge3" class="edge">
<title>feshell&#45;&gt;gate</title>
<path fill="none" stroke="#555555" d="M269.77,-455.11C417.18,-437.03 717.64,-400.19 893.79,-378.58"/>
<polygon fill="#555555" stroke="#555555" points="894.41,-382.03 903.91,-377.34 893.56,-375.08 894.41,-382.03"/>
<text text-anchor="middle" x="629.5" y="-419.55" font-family="Helvetica,sans-Serif" font-size="9.00">/api/* &#160;+X&#45;Access&#45;Key</text>
</g>
<!-- core -->
<g id="node5" class="node">
<title>core</title>
<polygon fill="#ffffff" stroke="#cccccc" points="1339.5,-296.75 1072.5,-296.75 1072.5,-252.75 1339.5,-252.75 1339.5,-296.75"/>
<text text-anchor="middle" x="1206" y="-283.95" font-family="Helvetica,sans-Serif" font-size="11.00">Routes existantes</text>
<text text-anchor="middle" x="1206" y="-271.95" font-family="Helvetica,sans-Serif" font-size="11.00">auth · admin · listings · pipeline</text>
<text text-anchor="middle" x="1206" y="-259.95" font-family="Helvetica,sans-Serif" font-size="11.00">hot_vendors · report · export · import · rental</text>
</g>
<!-- gate&#45;&gt;core -->
<g id="edge4" class="edge">
<title>gate&#45;&gt;core</title>
<path fill="none" stroke="#555555" d="M1066.84,-342.55C1091.63,-330.65 1125.05,-314.61 1152.93,-301.23"/>
<polygon fill="#555555" stroke="#555555" points="1154.65,-304.29 1162.15,-296.8 1151.62,-297.98 1154.65,-304.29"/>
</g>
<!-- newroutes -->
<g id="node6" class="node">
<title>newroutes</title>
<polygon fill="#c8e6c9" stroke="#cccccc" points="1054,-296.75 808,-296.75 808,-252.75 1054,-252.75 1054,-296.75"/>
<text text-anchor="middle" x="931" y="-283.95" font-family="Helvetica,sans-Serif" font-size="11.00">Routes NOUVELLES (cette semaine)</text>
<text text-anchor="middle" x="931" y="-271.95" font-family="Helvetica,sans-Serif" font-size="11.00">signals_api (LOOP 2/3/4/6)</text>
<text text-anchor="middle" x="931" y="-259.95" font-family="Helvetica,sans-Serif" font-size="11.00">appraisals_api (LOOP&#45;5) · roi_api (PERF&#45;2)</text>
</g>
<!-- gate&#45;&gt;newroutes -->
<g id="edge5" class="edge">
<title>gate&#45;&gt;newroutes</title>
<path fill="none" stroke="#555555" d="M1010.28,-342.35C996.93,-331.14 979.28,-316.31 964.03,-303.5"/>
<polygon fill="#555555" stroke="#555555" points="966.21,-300.76 956.3,-297.01 961.71,-306.12 966.21,-300.76"/>
</g>
<!-- dbcore -->
<g id="node15" class="node">
<title>dbcore</title>
<path fill="#ffffff" stroke="#cccccc" d="M2038.5,-64.25C2038.5,-66.46 1967.46,-68.25 1880,-68.25 1792.54,-68.25 1721.5,-66.46 1721.5,-64.25 1721.5,-64.25 1721.5,-28.25 1721.5,-28.25 1721.5,-26.04 1792.54,-24.25 1880,-24.25 1967.46,-24.25 2038.5,-26.04 2038.5,-28.25 2038.5,-28.25 2038.5,-64.25 2038.5,-64.25"/>
<path fill="none" stroke="#cccccc" d="M2038.5,-64.25C2038.5,-62.04 1967.46,-60.25 1880,-60.25 1792.54,-60.25 1721.5,-62.04 1721.5,-64.25"/>
<text text-anchor="middle" x="1880" y="-49.45" font-family="Helvetica,sans-Serif" font-size="11.00">listings · suburbs · scrape_logs</text>
<text text-anchor="middle" x="1880" y="-37.45" font-family="Helvetica,sans-Serif" font-size="11.00">pipeline_tracking · hot_vendor_* · users · user_suburbs</text>
</g>
<!-- core&#45;&gt;dbcore -->
<g id="edge6" class="edge">
<title>core&#45;&gt;dbcore</title>
<path fill="none" stroke="#555555" d="M1339.86,-254.28C1344.63,-253.74 1349.35,-253.23 1354,-252.75 1482.47,-239.67 1518.5,-265.18 1644,-234.75 1663.34,-230.07 1670.46,-230.34 1685,-216.75 1715.14,-188.59 1699.41,-164.24 1728,-134.5 1753.32,-108.16 1788.33,-87.33 1818.37,-72.64"/>
<polygon fill="#555555" stroke="#555555" points="1819.99,-75.75 1827.51,-68.28 1816.98,-69.43 1819.99,-75.75"/>
</g>
<!-- diff -->
<g id="node7" class="node">
<title>diff</title>
<ellipse fill="#c8e6c9" stroke="#cccccc" cx="772" cy="-165.13" rx="91.85" ry="22.76"/>
<text text-anchor="middle" x="772" y="-168.33" font-family="Helvetica,sans-Serif" font-size="11.00">diff_engine (LOOP&#45;1)</text>
<text text-anchor="middle" x="772" y="-156.33" font-family="Helvetica,sans-Serif" font-size="11.00">snapshot run&#45;à&#45;run</text>
</g>
<!-- newroutes&#45;&gt;diff -->
<g id="edge8" class="edge">
<title>newroutes&#45;&gt;diff</title>
<path fill="none" stroke="#555555" stroke-dasharray="5,2" d="M899.97,-252.75C874.44,-235.47 838.14,-210.9 810.71,-192.33"/>
<polygon fill="#555555" stroke="#555555" points="812.39,-189.24 802.15,-186.53 808.47,-195.04 812.39,-189.24"/>
</g>
<!-- letters -->
<g id="node13" class="node">
<title>letters</title>
<polygon fill="#ffffff" stroke="#cccccc" points="540,-64.25 412,-64.25 412,-28.25 540,-28.25 540,-64.25"/>
<text text-anchor="middle" x="476" y="-49.45" font-family="Helvetica,sans-Serif" font-size="11.00">pipeline_letter.py</text>
<text text-anchor="middle" x="476" y="-37.45" font-family="Helvetica,sans-Serif" font-size="11.00">.docx (python&#45;docx)</text>
</g>
<!-- newroutes&#45;&gt;letters -->
<g id="edge35" class="edge">
<title>newroutes&#45;&gt;letters</title>
<path fill="none" stroke="#555555" stroke-dasharray="5,2" d="M807.71,-271.09C637.19,-266.12 346.55,-252.45 314,-216.75 289.37,-189.74 295.26,-165.89 314,-134.5 333.31,-102.17 369.17,-81.12 402.26,-67.81"/>
<polygon fill="#555555" stroke="#555555" points="403.88,-70.94 411.96,-64.09 401.37,-64.4 403.88,-70.94"/>
</g>
<!-- dbnew -->
<g id="node16" class="node">
<title>dbnew</title>
<path fill="#c8e6c9" stroke="#cccccc" d="M1703.5,-71.21C1703.5,-74.27 1636.49,-76.75 1554,-76.75 1471.51,-76.75 1404.5,-74.27 1404.5,-71.21 1404.5,-71.21 1404.5,-21.29 1404.5,-21.29 1404.5,-18.23 1471.51,-15.75 1554,-15.75 1636.49,-15.75 1703.5,-18.23 1703.5,-21.29 1703.5,-21.29 1703.5,-71.21 1703.5,-71.21"/>
<path fill="none" stroke="#cccccc" d="M1703.5,-71.21C1703.5,-68.15 1636.49,-65.66 1554,-65.66 1471.51,-65.66 1404.5,-68.15 1404.5,-71.21"/>
<text text-anchor="middle" x="1554" y="-55.45" font-family="Helvetica,sans-Serif" font-size="11.00">NOUVELLES TABLES</text>
<text text-anchor="middle" x="1554" y="-43.45" font-family="Helvetica,sans-Serif" font-size="11.00">listing_transitions · listing_snapshots</text>
<text text-anchor="middle" x="1554" y="-31.45" font-family="Helvetica,sans-Serif" font-size="11.00">appraisals · appraisal_followups · strata_complexes</text>
</g>
<!-- newroutes&#45;&gt;dbnew -->
<g id="edge7" class="edge">
<title>newroutes&#45;&gt;dbnew</title>
<path fill="none" stroke="#555555" d="M1054.16,-254.11C1057.47,-253.65 1060.76,-253.19 1064,-252.75 1205.83,-233.59 1255,-278.75 1384,-216.75 1446.08,-186.92 1498.84,-124.98 1528.46,-84.81"/>
<polygon fill="#555555" stroke="#555555" points="1531.38,-86.73 1534.42,-76.58 1525.72,-82.63 1531.38,-86.73"/>
</g>
<!-- claude -->
<g id="node23" class="node">
<title>claude</title>
<polygon fill="#ede7f6" stroke="#cccccc" points="1669.5,-183.13 1582.5,-183.13 1582.5,-147.13 1675.5,-147.13 1675.5,-177.13 1669.5,-183.13"/>
<polyline fill="none" stroke="#cccccc" points="1669.5,-183.13 1669.5,-177.13 "/>
<polyline fill="none" stroke="#cccccc" points="1675.5,-177.13 1669.5,-177.13 "/>
<text text-anchor="middle" x="1629" y="-168.33" font-family="Helvetica,sans-Serif" font-size="11.00">Claude API</text>
<text text-anchor="middle" x="1629" y="-156.33" font-family="Helvetica,sans-Serif" font-size="11.00">(pitch bullets)</text>
</g>
<!-- newroutes&#45;&gt;claude -->
<g id="edge34" class="edge">
<title>newroutes&#45;&gt;claude</title>
<path fill="none" stroke="#555555" stroke-dasharray="5,2" d="M1054.12,-253.77C1057.44,-253.4 1060.74,-253.06 1064,-252.75 1094.05,-249.9 1582.91,-252.95 1607,-234.75 1619.69,-225.17 1625.21,-208.18 1627.54,-193.5"/>
<polygon fill="#555555" stroke="#555555" points="1631.04,-193.7 1628.73,-183.36 1624.09,-192.88 1631.04,-193.7"/>
<text text-anchor="middle" x="1628" y="-227.55" font-family="Helvetica,sans-Serif" font-size="9.00">pitch</text>
</g>
<!-- diff&#45;&gt;dbcore -->
<g id="edge14" class="edge">
<title>diff&#45;&gt;dbcore</title>
<path fill="none" stroke="#555555" stroke-dasharray="5,2" d="M823.59,-146.33C839.27,-141.65 856.68,-137.16 873,-134.5 901.81,-129.8 1368.83,-115.43 1398,-114.5 1467.99,-112.28 1644.15,-119.25 1713,-106.5 1750.97,-99.47 1791.85,-85.09 1823.66,-72.26"/>
<polygon fill="#555555" stroke="#555555" points="1825.3,-75.36 1833.23,-68.33 1822.65,-68.89 1825.3,-75.36"/>
</g>
<!-- diff&#45;&gt;dbnew -->
<g id="edge13" class="edge">
<title>diff&#45;&gt;dbnew</title>
<path fill="none" stroke="#555555" d="M821.56,-146.05C855.73,-134.54 902.48,-120.68 945,-114.5 1043.31,-100.2 1294.33,-124.7 1392,-106.5 1421.5,-101 1452.72,-90.73 1479.79,-80.27"/>
<polygon fill="#555555" stroke="#555555" points="1481.17,-83.49 1489.19,-76.57 1478.6,-76.98 1481.17,-83.49"/>
<text text-anchor="middle" x="998.5" y="-117.3" font-family="Helvetica,sans-Serif" font-size="9.00">transitions + snapshots</text>
</g>
<!-- wo -->
<g id="node8" class="node">
<title>wo</title>
<ellipse fill="#c8e6c9" stroke="#cccccc" cx="580" cy="-165.13" rx="82.27" ry="18"/>
<text text-anchor="middle" x="580" y="-162.33" font-family="Helvetica,sans-Serif" font-size="11.00">withdrawn_orphan (2)</text>
</g>
<!-- wo&#45;&gt;letters -->
<g id="edge25" class="edge">
<title>wo&#45;&gt;letters</title>
<path fill="none" stroke="#555555" d="M565.1,-147.38C547.51,-127.62 518.12,-94.58 497.93,-71.9"/>
<polygon fill="#555555" stroke="#555555" points="500.47,-69.49 491.21,-64.34 495.24,-74.14 500.47,-69.49"/>
</g>
<!-- wo&#45;&gt;dbnew -->
<g id="edge20" class="edge">
<title>wo&#45;&gt;dbnew</title>
<path fill="none" stroke="#555555" d="M619.35,-149.18C635.18,-143.73 653.75,-138.04 671,-134.5 767.61,-114.66 793.52,-119.74 892,-114.5 947.48,-111.55 1337.37,-116.63 1392,-106.5 1421.5,-101.03 1452.72,-90.77 1479.8,-80.3"/>
<polygon fill="#555555" stroke="#555555" points="1481.18,-83.52 1489.2,-76.6 1478.61,-77.01 1481.18,-83.52"/>
</g>
<!-- sf -->
<g id="node9" class="node">
<title>sf</title>
<ellipse fill="#c8e6c9" stroke="#cccccc" cx="1089" cy="-165.13" rx="71.34" ry="22.76"/>
<text text-anchor="middle" x="1089" y="-168.33" font-family="Helvetica,sans-Serif" font-size="11.00">sale_fallen (3)</text>
<text text-anchor="middle" x="1089" y="-156.33" font-family="Helvetica,sans-Serif" font-size="11.00">[SIGNALS_LIVE]</text>
</g>
<!-- sf&#45;&gt;dbnew -->
<g id="edge21" class="edge">
<title>sf&#45;&gt;dbnew</title>
<path fill="none" stroke="#555555" d="M1130.78,-146.6C1142.93,-142.06 1156.34,-137.6 1169,-134.5 1266.03,-110.78 1294.92,-130.03 1392,-106.5 1419.61,-99.81 1448.99,-89.94 1475.06,-80.17"/>
<polygon fill="#555555" stroke="#555555" points="1476.39,-83.41 1484.5,-76.58 1473.91,-76.87 1476.39,-83.41"/>
</g>
<!-- resend -->
<g id="node21" class="node">
<title>resend</title>
<polygon fill="#ede7f6" stroke="#cccccc" points="2237,-64.25 2181,-64.25 2181,-28.25 2243,-28.25 2243,-58.25 2237,-64.25"/>
<polyline fill="none" stroke="#cccccc" points="2237,-64.25 2237,-58.25 "/>
<polyline fill="none" stroke="#cccccc" points="2243,-58.25 2237,-58.25 "/>
<text text-anchor="middle" x="2212" y="-49.45" font-family="Helvetica,sans-Serif" font-size="11.00">Resend</text>
<text text-anchor="middle" x="2212" y="-37.45" font-family="Helvetica,sans-Serif" font-size="11.00">(emails)</text>
</g>
<!-- sf&#45;&gt;resend -->
<g id="edge28" class="edge">
<title>sf&#45;&gt;resend</title>
<path fill="none" stroke="#555555" d="M1129.39,-146.35C1141.85,-141.64 1155.78,-137.14 1169,-134.5 1225.05,-123.33 1368.89,-126.8 1426,-124.5 1533.12,-120.19 1559.84,-117.57 1667,-114.5 1681.02,-114.1 2159.66,-113.18 2172,-106.5 2185.13,-99.39 2194.76,-85.87 2201.27,-73.54"/>
<polygon fill="#555555" stroke="#555555" points="2204.45,-75 2205.65,-64.47 2198.15,-71.95 2204.45,-75"/>
</g>
<!-- sr -->
<g id="node10" class="node">
<title>sr</title>
<ellipse fill="#c8e6c9" stroke="#cccccc" cx="941" cy="-165.13" rx="58.86" ry="18"/>
<text text-anchor="middle" x="941" y="-162.33" font-family="Helvetica,sans-Serif" font-size="11.00">sold_reveal (4)</text>
</g>
<!-- sr&#45;&gt;letters -->
<g id="edge26" class="edge">
<title>sr&#45;&gt;letters</title>
<path fill="none" stroke="#555555" d="M912.25,-149.25C900.39,-143.74 886.33,-137.99 873,-134.5 830.65,-123.4 818.1,-132.22 775,-124.5 693.51,-109.9 601.55,-84.81 541.4,-67.2"/>
<polygon fill="#555555" stroke="#555555" points="542.23,-63.79 531.65,-64.33 540.26,-70.51 542.23,-63.79"/>
</g>
<!-- sr&#45;&gt;dbnew -->
<g id="edge22" class="edge">
<title>sr&#45;&gt;dbnew</title>
<path fill="none" stroke="#555555" d="M969.73,-149.2C981.59,-143.69 995.66,-137.94 1009,-134.5 1100.21,-110.95 1126.04,-121.13 1220,-114.5 1296.34,-109.11 1316.98,-121.6 1392,-106.5 1421.02,-100.66 1451.78,-90.5 1478.61,-80.22"/>
<polygon fill="#555555" stroke="#555555" points="1479.89,-83.48 1487.93,-76.59 1477.34,-76.96 1479.89,-83.48"/>
</g>
<!-- osm -->
<g id="node22" class="node">
<title>osm</title>
<polygon fill="#ede7f6" stroke="#cccccc" points="2157,-64.25 2057,-64.25 2057,-28.25 2163,-28.25 2163,-58.25 2157,-64.25"/>
<polyline fill="none" stroke="#cccccc" points="2157,-64.25 2157,-58.25 "/>
<polyline fill="none" stroke="#cccccc" points="2163,-58.25 2157,-58.25 "/>
<text text-anchor="middle" x="2110" y="-49.45" font-family="Helvetica,sans-Serif" font-size="11.00">OSM / Overpass</text>
<text text-anchor="middle" x="2110" y="-37.45" font-family="Helvetica,sans-Serif" font-size="11.00">(voisins 150m)</text>
</g>
<!-- sr&#45;&gt;osm -->
<g id="edge32" class="edge">
<title>sr&#45;&gt;osm</title>
<path fill="none" stroke="#555555" d="M968.97,-149.09C980.95,-143.41 995.31,-137.58 1009,-134.5 1077.33,-119.13 1254.11,-129.03 1324,-124.5 1369.46,-121.55 1380.52,-117.02 1426,-114.5 1443.34,-113.54 2035.01,-113.26 2051,-106.5 2067.67,-99.45 2082.1,-85.21 2092.51,-72.46"/>
<polygon fill="#555555" stroke="#555555" points="2095.41,-74.44 2098.76,-64.38 2089.87,-70.15 2095.41,-74.44"/>
</g>
<!-- af -->
<g id="node11" class="node">
<title>af</title>
<ellipse fill="#c8e6c9" stroke="#cccccc" cx="1275" cy="-165.13" rx="96.75" ry="22.76"/>
<text text-anchor="middle" x="1275" y="-168.33" font-family="Helvetica,sans-Serif" font-size="11.00">appraisal_followup (5)</text>
<text text-anchor="middle" x="1275" y="-156.33" font-family="Helvetica,sans-Serif" font-size="11.00">[SIGNALS_LIVE]</text>
</g>
<!-- af&#45;&gt;dbnew -->
<g id="edge23" class="edge">
<title>af&#45;&gt;dbnew</title>
<path fill="none" stroke="#555555" d="M1320.45,-145.09C1362.08,-127.65 1424.63,-101.44 1474.53,-80.54"/>
<polygon fill="#555555" stroke="#555555" points="1476.13,-83.66 1484.01,-76.57 1473.43,-77.21 1476.13,-83.66"/>
</g>
<!-- af&#45;&gt;resend -->
<g id="edge29" class="edge">
<title>af&#45;&gt;resend</title>
<path fill="none" stroke="#555555" d="M1362.32,-155.32C1421.94,-149.34 1502.73,-141.32 1574,-134.5 1670.41,-125.28 1694.3,-119.96 1791,-114.5 1812.14,-113.31 2153.41,-116.63 2172,-106.5 2185.11,-99.35 2194.74,-85.84 2201.25,-73.51"/>
<polygon fill="#555555" stroke="#555555" points="2204.43,-74.98 2205.64,-64.45 2198.13,-71.93 2204.43,-74.98"/>
</g>
<!-- strata -->
<g id="node12" class="node">
<title>strata</title>
<ellipse fill="#c8e6c9" stroke="#cccccc" cx="403" cy="-165.13" rx="76.94" ry="18"/>
<text text-anchor="middle" x="403" y="-162.33" font-family="Helvetica,sans-Serif" font-size="11.00">strata_contagion (6)</text>
</g>
<!-- strata&#45;&gt;letters -->
<g id="edge27" class="edge">
<title>strata&#45;&gt;letters</title>
<path fill="none" stroke="#555555" d="M413.77,-146.88C425.9,-127.46 445.75,-95.69 459.76,-73.25"/>
<polygon fill="#555555" stroke="#555555" points="462.86,-74.9 465.18,-64.57 456.92,-71.19 462.86,-74.9"/>
</g>
<!-- strata&#45;&gt;dbnew -->
<g id="edge24" class="edge">
<title>strata&#45;&gt;dbnew</title>
<path fill="none" stroke="#555555" d="M439.68,-149.25C454.73,-143.74 472.47,-137.99 489,-134.5 492.23,-133.82 722.7,-114.66 726,-114.5 799.92,-110.94 1319.21,-119.85 1392,-106.5 1421.64,-101.07 1453.01,-90.75 1480.17,-80.23"/>
<polygon fill="#555555" stroke="#555555" points="1481.58,-83.43 1489.6,-76.5 1479.01,-76.92 1481.58,-83.43"/>
</g>
<!-- strata&#45;&gt;osm -->
<g id="edge33" class="edge">
<title>strata&#45;&gt;osm</title>
<path fill="none" stroke="#555555" d="M438.74,-149C453.94,-143.31 472.05,-137.49 489,-134.5 551.05,-123.55 993.01,-126.23 1056,-124.5 1175.15,-121.23 1204.84,-117.38 1324,-114.5 1344.19,-114.01 2032.39,-114.35 2051,-106.5 2067.68,-99.46 2082.1,-85.23 2092.52,-72.47"/>
<polygon fill="#555555" stroke="#555555" points="2095.42,-74.45 2098.77,-64.39 2089.88,-70.16 2095.42,-74.45"/>
</g>
<!-- digest -->
<g id="node14" class="node">
<title>digest</title>
<polygon fill="#ffffff" stroke="#cccccc" points="1379.5,-378.75 1276.5,-378.75 1276.5,-342.75 1379.5,-342.75 1379.5,-378.75"/>
<text text-anchor="middle" x="1328" y="-363.95" font-family="Helvetica,sans-Serif" font-size="11.00">email_digest.py</text>
<text text-anchor="middle" x="1328" y="-351.95" font-family="Helvetica,sans-Serif" font-size="11.00">Morning Brief</text>
</g>
<!-- digest&#45;&gt;resend -->
<g id="edge31" class="edge">
<title>digest&#45;&gt;resend</title>
<path fill="none" stroke="#555555" d="M1332.14,-342.46C1339.07,-317.77 1355.55,-273.16 1388,-252.75 1414.86,-235.86 1641.66,-239.73 1673,-234.75 1899.16,-198.88 1984.87,-238.48 2172,-106.5 2183.84,-98.15 2193.21,-85.08 2199.89,-73.35"/>
<polygon fill="#555555" stroke="#555555" points="2203.07,-74.81 2204.66,-64.34 2196.89,-71.53 2203.07,-74.81"/>
</g>
<!-- cron -->
<g id="node17" class="node">
<title>cron</title>
<polygon fill="#ffffff" stroke="#cccccc" points="1758.5,-484.75 1585.5,-484.75 1585.5,-448.75 1758.5,-448.75 1758.5,-484.75"/>
<text text-anchor="middle" x="1672" y="-469.95" font-family="Helvetica,sans-Serif" font-size="11.00">scrape_sales.yml (0 16 UTC)</text>
<text text-anchor="middle" x="1672" y="-457.95" font-family="Helvetica,sans-Serif" font-size="11.00">run_daily_scrape.py</text>
</g>
<!-- cron&#45;&gt;diff -->
<g id="edge12" class="edge">
<title>cron&#45;&gt;diff</title>
<path fill="none" stroke="#555555" d="M1667.4,-448.6C1659.68,-422.11 1642.12,-370.55 1614,-334.75 1609.5,-329.02 1605.96,-330.09 1601,-324.75 1564.73,-285.76 1581.74,-250.27 1535,-224.75 1518.86,-215.94 890.87,-221.1 873,-216.75 851.9,-211.63 830.16,-201.47 812.28,-191.59"/>
<polygon fill="#555555" stroke="#555555" points="813.73,-188.38 803.31,-186.47 810.26,-194.46 813.73,-188.38"/>
<text text-anchor="middle" x="1649.5" y="-317.55" font-family="Helvetica,sans-Serif" font-size="9.00">après chaque suburb</text>
</g>
<!-- cron&#45;&gt;wo -->
<g id="edge15" class="edge">
<title>cron&#45;&gt;wo</title>
<path fill="none" stroke="#555555" d="M1677.38,-448.59C1685.54,-419.13 1697.76,-357.94 1674,-314.75 1637.98,-249.29 1603.66,-245.91 1532,-224.75 1486.12,-211.21 717.25,-228.98 671,-216.75 649.42,-211.05 627.49,-199.07 610.56,-188.19"/>
<polygon fill="#555555" stroke="#555555" points="612.46,-185.26 602.19,-182.65 608.6,-191.09 612.46,-185.26"/>
</g>
<!-- cron&#45;&gt;sf -->
<g id="edge16" class="edge">
<title>cron&#45;&gt;sf</title>
<path fill="none" stroke="#555555" d="M1689.1,-448.58C1694.28,-442.25 1699.3,-434.68 1702,-426.75 1718.03,-379.63 1716.05,-362.51 1702,-314.75 1688.56,-269.1 1685.59,-247.89 1644,-224.75 1620.93,-211.93 1194.29,-224.32 1169,-216.75 1152.18,-211.72 1135.46,-202.08 1121.7,-192.54"/>
<polygon fill="#555555" stroke="#555555" points="1123.69,-189.66 1113.53,-186.66 1119.6,-195.34 1123.69,-189.66"/>
</g>
<!-- cron&#45;&gt;sr -->
<g id="edge17" class="edge">
<title>cron&#45;&gt;sr</title>
<path fill="none" stroke="#555555" d="M1699.35,-448.5C1706.43,-442.55 1713.14,-435.22 1717,-426.75 1718.85,-422.71 1717.32,-421.19 1717,-416.75 1710.34,-325.7 1723.88,-268.96 1644,-224.75 1613.13,-207.67 1042.42,-228.06 1009,-216.75 992.42,-211.14 976.56,-199.82 964.34,-189.3"/>
<polygon fill="#555555" stroke="#555555" points="966.64,-186.66 956.86,-182.57 961.96,-191.86 966.64,-186.66"/>
</g>
<!-- cron&#45;&gt;af -->
<g id="edge18" class="edge">
<title>cron&#45;&gt;af</title>
<path fill="none" stroke="#555555" d="M1744.96,-448.69C1757.14,-443.26 1768.79,-436.12 1778,-426.75 1844.32,-359.31 1910.89,-292.62 1845,-224.75 1834.51,-213.95 1588.99,-218.24 1574,-216.75 1499.34,-209.37 1415.15,-194.52 1355.17,-182.8"/>
<polygon fill="#555555" stroke="#555555" points="1355.5,-179.3 1345.01,-180.8 1354.15,-186.17 1355.5,-179.3"/>
</g>
<!-- cron&#45;&gt;strata -->
<g id="edge19" class="edge">
<title>cron&#45;&gt;strata</title>
<path fill="none" stroke="#555555" d="M1650.94,-448.68C1638.95,-438.13 1624.3,-423.77 1614,-408.75 1593.73,-379.2 1600.16,-365.64 1582,-334.75 1570.35,-314.95 1538.39,-265.08 1519,-252.75 1470.22,-221.74 1449.43,-231.27 1392,-224.75 1342.15,-219.1 537.34,-230.16 489,-216.75 468.57,-211.09 448.03,-199.28 432.14,-188.49"/>
<polygon fill="#555555" stroke="#555555" points="434.02,-185.53 423.83,-182.64 430,-191.26 434.02,-185.53"/>
</g>
<!-- cron&#45;&gt;digest -->
<g id="edge30" class="edge">
<title>cron&#45;&gt;digest</title>
<path fill="none" stroke="#555555" d="M1595.81,-448.74C1589.45,-447.37 1583.12,-446.03 1577,-444.75 1494.99,-427.71 1468.73,-442.36 1392,-408.75 1378.62,-402.89 1365.35,-393.83 1354.39,-385.22"/>
<polygon fill="#555555" stroke="#555555" points="1356.46,-382.39 1346.49,-378.78 1352.03,-387.82 1356.46,-382.39"/>
</g>
<!-- scraper -->
<g id="node18" class="node">
<title>scraper</title>
<polygon fill="#ffffff" stroke="#cccccc" points="1572.5,-378.75 1403.5,-378.75 1403.5,-342.75 1572.5,-342.75 1572.5,-378.75"/>
<text text-anchor="middle" x="1488" y="-363.95" font-family="Helvetica,sans-Serif" font-size="11.00">scraper.py + scraper_*</text>
<text text-anchor="middle" x="1488" y="-351.95" font-family="Helvetica,sans-Serif" font-size="11.00">healing_loop (self&#45;recovery)</text>
</g>
<!-- cron&#45;&gt;scraper -->
<g id="edge9" class="edge">
<title>cron&#45;&gt;scraper</title>
<path fill="none" stroke="#555555" d="M1630.66,-448.61C1616.28,-442.23 1600.2,-434.62 1586,-426.75 1563.08,-414.06 1538.51,-397.76 1519.7,-384.66"/>
<polygon fill="#555555" stroke="#555555" points="1521.69,-381.77 1511.5,-378.88 1517.66,-387.5 1521.69,-381.77"/>
</g>
<!-- scraper&#45;&gt;dbcore -->
<g id="edge11" class="edge">
<title>scraper&#45;&gt;dbcore</title>
<path fill="none" stroke="#555555" d="M1572.52,-356C1606.71,-351.54 1645.47,-342.54 1677,-324.75 1778,-267.78 1842.61,-137.48 1867.9,-77.94"/>
<polygon fill="#555555" stroke="#555555" points="1871.28,-78.93 1871.89,-68.35 1864.82,-76.24 1871.28,-78.93"/>
<text text-anchor="middle" x="1815" y="-227.55" font-family="Helvetica,sans-Serif" font-size="9.00">upsert listings</text>
</g>
<!-- reiwa -->
<g id="node20" class="node">
<title>reiwa</title>
<polygon fill="#ede7f6" stroke="#cccccc" points="1503.5,-292.75 1396.5,-292.75 1396.5,-256.75 1509.5,-256.75 1509.5,-286.75 1503.5,-292.75"/>
<polyline fill="none" stroke="#cccccc" points="1503.5,-292.75 1503.5,-286.75 "/>
<polyline fill="none" stroke="#cccccc" points="1509.5,-286.75 1503.5,-286.75 "/>
<text text-anchor="middle" x="1453" y="-277.95" font-family="Helvetica,sans-Serif" font-size="11.00">REIWA.com.au</text>
<text text-anchor="middle" x="1453" y="-265.95" font-family="Helvetica,sans-Serif" font-size="11.00">(source données)</text>
</g>
<!-- scraper&#45;&gt;reiwa -->
<g id="edge10" class="edge">
<title>scraper&#45;&gt;reiwa</title>
<path fill="none" stroke="#555555" d="M1480.75,-342.35C1475.93,-330.79 1469.51,-315.38 1464.06,-302.3"/>
<polygon fill="#555555" stroke="#555555" points="1467.2,-300.73 1460.12,-292.85 1460.74,-303.43 1467.2,-300.73"/>
</g>
<!-- warm -->
<g id="node19" class="node">
<title>warm</title>
<polygon fill="#ffffff" stroke="#cccccc" points="1567.5,-484.75 1404.5,-484.75 1404.5,-448.75 1567.5,-448.75 1567.5,-484.75"/>
<text text-anchor="middle" x="1486" y="-469.95" font-family="Helvetica,sans-Serif" font-size="11.00">keep&#45;render&#45;warm (14min)</text>
<text text-anchor="middle" x="1486" y="-457.95" font-family="Helvetica,sans-Serif" font-size="11.00">keepalive · auto&#45;deploy</text>
</g>
<!-- warm&#45;&gt;gate -->
<g id="edge36" class="edge">
<title>warm&#45;&gt;gate</title>
<path fill="none" stroke="#c62828" d="M1411.38,-448.7C1330.13,-430.13 1200.48,-400.49 1115.54,-381.08"/>
<polygon fill="#c62828" stroke="#c62828" points="1116.19,-377.64 1105.67,-378.82 1114.63,-384.46 1116.19,-377.64"/>
<text text-anchor="middle" x="1358.5" y="-419.55" font-family="Helvetica,sans-Serif" font-size="9.00" fill="#c62828">ping (réveille Neon!)</text>
</g>
</g>
</svg>
